<?xml version="1.0" ?><svg id="Layer_1" style="enable-background:new 0 0 120 120;" version="1.1" viewBox="0 0 120 120" xml:space="preserve" xmlns="http://www.w3.org/2000/svg" xmlns:xlink="http://www.w3.org/1999/xlink"><style type="text/css">
	.st0{fill:#4CB6FF;}
	.st1{fill:#98EA81;}
	.st2{fill:#FFE1A3;}
	.st3{fill:#87705C;}
	.st4{fill:#FFB53D;}
	.st5{fill:#DB5C4F;}
	.st6{fill:#FFFFFF;}
</style><g><path class="st0" d="M21.9,26.9h76.2c1.3,0,2.3,1.1,2.3,2.3v61.5c0,1.3-1.1,2.3-2.3,2.3H21.9c-1.3,0-2.3-1.1-2.3-2.3V29.3   C19.5,28,20.6,26.9,21.9,26.9z"/><path class="st1" d="M100.5,29.4L100.5,29.4c0,1.4-1.1,2.5-2.5,2.5c-4.1,0-8.1,0.7-11.3,3c-2.6,1.8-4.4,4.5-6.7,6.6   c-3.5,3.1-8.3,5-13.2,5.1c-3.1,0-6.3-0.6-9.4-0.5c-3.1,0-6.5,1-8.3,3.4c-1.7,2.3-1.5,5.5-3.4,7.6c-1.9,2.1-5.2,2.6-8.2,2.9   c-6,0.6-12,1.2-18,1.8V29.4c0-1.4,1.1-2.5,2.5-2.5h76C99.4,26.9,100.5,28,100.5,29.4z"/><path class="st2" d="M94.4,53.4c1.8-1.5,3.9-2.4,6-2.9v40.1c0,1.4-1.1,2.5-2.5,2.5H22c-1.4,0-2.5-1.1-2.5-2.5l0-5.6   c8.6-1,17.2-1.9,25.8-2.9c3-0.3,6.3-0.9,8.2-3.3c1.9-2.5,1.7-6.1,3.4-8.8c1.7-2.8,5.1-3.8,8.3-3.9c3.1-0.1,6.3,0.7,9.4,0.6   c4.9-0.1,9.7-2.2,13.2-5.8C90.1,58.6,91.8,55.5,94.4,53.4z"/><g><path class="st3" d="M39.7,88.6c-0.7,0-1.4,0-2.1-0.1c-0.3,0-0.5,0.2-0.5,0.5c0,0.3,0.2,0.5,0.5,0.5c0.7,0,1.4,0.1,2.1,0.1    c0,0,0,0,0,0c0.3,0,0.5-0.2,0.5-0.5C40.2,88.9,40,88.6,39.7,88.6z"/><path class="st3" d="M45.8,88.3c-0.7,0.1-1.4,0.1-2.1,0.2c-0.3,0-0.5,0.3-0.5,0.6c0,0.3,0.2,0.5,0.5,0.5c0,0,0,0,0,0    c0.7,0,1.4-0.1,2.1-0.2c0.3,0,0.5-0.3,0.5-0.6S46.1,88.3,45.8,88.3z"/><path class="st3" d="M51.8,87.2c-0.6,0.2-1.3,0.4-2,0.5c-0.3,0.1-0.5,0.3-0.4,0.6c0.1,0.2,0.3,0.4,0.5,0.4c0,0,0.1,0,0.1,0    c0.7-0.2,1.4-0.3,2.1-0.5c0.3-0.1,0.4-0.4,0.4-0.7C52.3,87.2,52,87.1,51.8,87.2z"/><path class="st3" d="M57.3,84.8c-0.6,0.3-1.2,0.7-1.8,1c-0.3,0.1-0.4,0.4-0.2,0.7c0.1,0.2,0.3,0.3,0.5,0.3c0.1,0,0.2,0,0.2-0.1    c0.6-0.3,1.3-0.6,1.9-1c0.2-0.1,0.3-0.5,0.2-0.7C57.9,84.7,57.6,84.6,57.3,84.8z"/><path class="st3" d="M61.4,80.4c-0.4,0.5-0.9,1-1.3,1.6l-0.1,0.1c-0.2,0.2-0.1,0.6,0.1,0.7c0.1,0.1,0.2,0.1,0.3,0.1    c0.2,0,0.3-0.1,0.4-0.2l0.1-0.1c0.4-0.5,0.8-1,1.2-1.5c0.2-0.2,0.2-0.5,0-0.7C61.9,80.2,61.6,80.2,61.4,80.4z"/><path class="st3" d="M79.4,80.8C78.8,81,78.2,81,77.6,81l-0.2,0c-0.3,0-0.5,0.2-0.5,0.5c0,0.3,0.2,0.5,0.5,0.5l0.2,0    c0.7,0,1.3-0.1,2-0.2c0.3-0.1,0.5-0.3,0.4-0.6C80,81,79.7,80.8,79.4,80.8z"/><path class="st3" d="M73.6,80.4c-0.6-0.2-1.2-0.3-1.8-0.5l-0.2-0.1c-0.3-0.1-0.6,0.1-0.7,0.3c-0.1,0.3,0.1,0.6,0.3,0.7l0.2,0.1    c0.6,0.2,1.2,0.4,1.8,0.5c0,0,0.1,0,0.1,0c0.2,0,0.4-0.2,0.5-0.4C74,80.7,73.8,80.4,73.6,80.4z"/><path class="st3" d="M84.7,78.3c-0.5,0.4-1.1,0.8-1.6,1.2c-0.2,0.2-0.3,0.5-0.2,0.7c0.1,0.2,0.3,0.3,0.4,0.3c0.1,0,0.2,0,0.3-0.1    c0.6-0.4,1.2-0.8,1.8-1.3c0.2-0.2,0.2-0.5,0.1-0.7C85.2,78.1,84.9,78.1,84.7,78.3z"/><path class="st3" d="M67.5,78.8c-0.8-0.1-1.5-0.2-2.2-0.1c-0.3,0-0.5,0.3-0.5,0.5c0,0.3,0.3,0.5,0.5,0.5c0.6,0,1.3,0,2,0.1    c0,0,0.1,0,0.1,0c0.3,0,0.5-0.2,0.5-0.4C68,79.1,67.8,78.8,67.5,78.8z"/><path class="st3" d="M88.7,73.2c-0.3-0.1-0.6,0-0.7,0.3c-0.2,0.6-0.5,1.2-0.9,1.8c-0.1,0.2-0.1,0.6,0.2,0.7c0.1,0,0.2,0.1,0.3,0.1    c0.2,0,0.4-0.1,0.5-0.3c0.4-0.6,0.7-1.3,0.9-2C89.1,73.6,89,73.3,88.7,73.2z"/></g><ellipse class="st4" cx="88" cy="70.7" rx="4.9" ry="1.1"/><path class="st5" d="M95.7,59.6c0-4.3-3.5-7.7-7.7-7.7c-4.3,0-7.7,3.5-7.7,7.7c0,3.3,2.1,6.1,5.1,7.2l2.7,3.7l2.7-3.7   C93.6,65.7,95.7,62.9,95.7,59.6z"/><circle class="st6" cx="88" cy="59.6" r="4.2"/></g></svg>