<svg xmlns="http://www.w3.org/2000/svg" viewBox="0 0 101.82 101.78"><defs><style>.cls-1{fill:#1daa99;}.cls-2{fill:#fff;}.cls-3{fill:#f44545;}.cls-4{fill:#fc7572;stroke:#f44545;stroke-miterlimit:10;}</style></defs><title>Recurso 43</title><g id="Capa_2" data-name="Capa 2"><g id="Capa_1-2" data-name="Capa 1"><ellipse class="cls-1" cx="50.91" cy="50.89" rx="50.91" ry="50.89"/><circle class="cls-2" cx="47.39" cy="28.21" r="4.03"/><path class="cls-3" d="M29.39,49.53,46.73,19.8a.64.64,0,0,0-.23-.87l-.45-.26a.64.64,0,0,0-.87.23L27.84,48.63a.64.64,0,0,0,.23.87l.45.26A.65.65,0,0,0,29.39,49.53Z"/><path class="cls-3" d="M72.05,41.52,45.11,20.1a.65.65,0,0,1-.1-.9l.32-.4a.65.65,0,0,1,.9-.1L73.17,40.12a.65.65,0,0,1,.1.9l-.32.4A.65.65,0,0,1,72.05,41.52Z"/><path class="cls-4" d="M76.77,64.48l-43,8.07A3.18,3.18,0,0,1,30.06,70L26.75,52.38a3.63,3.63,0,0,1,2.9-4.24l41.69-7.83a3.46,3.46,0,0,1,4,2.76l3.45,18.39A2.57,2.57,0,0,1,76.77,64.48Z"/><path class="cls-3" d="M31.72,55.11l1.85-.35,1.84,9.8-1.85.35ZM33.34,59l5.71-1.07.33,1.78-5.71,1.07Zm3.75-4.89,1.85-.35,1.84,9.8-1.85.35Z"/><path class="cls-3" d="M44.37,62.53a3.2,3.2,0,0,1-1.5-1,3.9,3.9,0,0,1-.8-1.81l-.52-2.78a4,4,0,0,1,.09-2,3.11,3.11,0,0,1,1-1.5,4.2,4.2,0,0,1,3.75-.7,3.2,3.2,0,0,1,1.5,1,3.9,3.9,0,0,1,.8,1.81l.52,2.78a4,4,0,0,1-.09,2,3.11,3.11,0,0,1-1,1.5,3.87,3.87,0,0,1-1.79.8A4,4,0,0,1,44.37,62.53Zm2.45-2.13a1.56,1.56,0,0,0,.47-.71,2,2,0,0,0,0-.94l-.54-2.87a1.83,1.83,0,0,0-.38-.86,1.49,1.49,0,0,0-.7-.49,1.87,1.87,0,0,0-.92-.05,1.8,1.8,0,0,0-.84.38,1.56,1.56,0,0,0-.47.71,2,2,0,0,0,0,.94L44,59.38a1.83,1.83,0,0,0,.38.86,1.49,1.49,0,0,0,.7.49,1.87,1.87,0,0,0,.92.05A1.81,1.81,0,0,0,46.82,60.4Z"/><path class="cls-3" d="M48.66,51.93l7.19-1.35.33,1.78L49,53.71Zm2.82.3,1.85-.35,1.69,9-1.85.35Z"/><path class="cls-3" d="M56.93,50.38,58.78,50l1.84,9.8-1.85.35Zm.67-.12,5.9-1.11.33,1.78L57.93,52Zm.76,4,5.16-1,.33,1.78-5.16,1Zm.74,4L65,57.17,65.33,59l-5.9,1.11Z"/><path class="cls-3" d="M65.18,48.83,67,48.48l1.84,9.8L67,58.63Zm2.33,7.87,5.75-1.08.33,1.78-5.75,1.08Z"/></g></g></svg>